<svg width="25" height="25" fill="none" xmlns="http://www.w3.org/2000/svg"><g id="analytics_24dp_FILL0_wght400_GRAD0_opsz24 1"><path id="Vector" d="M7.58 17.069h2v-5h-2v5Zm8 0h2v-10h-2v10Zm-4 0h2v-3h-2v3Zm0-5h2v-2h-2v2Zm-6 9c-.55 0-1.02-.196-1.412-.588a1.926 1.926 0 0 1-.588-1.412v-14c0-.55.196-1.021.588-1.413A1.926 1.926 0 0 1 5.58 3.07h14c.55 0 1.02.196 1.413.587.391.392.587.863.587 1.413v14c0 .55-.196 1.02-.587 1.412a1.926 1.926 0 0 1-1.413.588h-14Zm0-2h14v-14h-14v14Z" fill="#7630EB"/></g></svg>