<svg width="31" height="30" fill="none" xmlns="http://www.w3.org/2000/svg"><path d="M8 25a2.407 2.407 0 0 1-1.766-.734A2.407 2.407 0 0 1 5.5 22.5c0-.688.245-1.276.734-1.766A2.407 2.407 0 0 1 8 20c.688 0 1.276.245 1.766.734.49.49.734 1.078.734 1.766s-.245 1.276-.734 1.766C9.276 24.756 8.687 25 8 25Zm7.5 0a2.407 2.407 0 0 1-1.766-.734A2.407 2.407 0 0 1 13 22.5c0-.688.245-1.276.734-1.766A2.407 2.407 0 0 1 15.5 20c.688 0 1.276.245 1.766.734.49.49.734 1.078.734 1.766s-.245 1.276-.734 1.766c-.49.49-1.078.734-1.766.734Zm7.5 0a2.407 2.407 0 0 1-1.766-.734A2.407 2.407 0 0 1 20.5 22.5c0-.688.245-1.276.734-1.766A2.407 2.407 0 0 1 23 20c.688 0 1.276.245 1.766.734.49.49.734 1.078.734 1.766s-.245 1.276-.734 1.766c-.49.49-1.078.734-1.766.734ZM8 17.5a2.407 2.407 0 0 1-1.766-.734A2.407 2.407 0 0 1 5.5 15c0-.688.245-1.276.734-1.766A2.407 2.407 0 0 1 8 12.5c.688 0 1.276.245 1.766.734.49.49.734 1.079.734 1.766 0 .688-.245 1.276-.734 1.766-.49.49-1.079.734-1.766.734Zm7.5 0a2.407 2.407 0 0 1-1.766-.734A2.407 2.407 0 0 1 13 15c0-.688.245-1.276.734-1.766A2.407 2.407 0 0 1 15.5 12.5c.688 0 1.276.245 1.766.734.49.49.734 1.079.734 1.766 0 .688-.245 1.276-.734 1.766-.49.49-1.078.734-1.766.734Zm7.5 0a2.407 2.407 0 0 1-1.766-.734A2.407 2.407 0 0 1 20.5 15c0-.688.245-1.276.734-1.766A2.407 2.407 0 0 1 23 12.5c.688 0 1.276.245 1.766.734.49.49.734 1.079.734 1.766 0 .688-.245 1.276-.734 1.766-.49.49-1.078.734-1.766.734ZM8 10a2.407 2.407 0 0 1-1.766-.734A2.407 2.407 0 0 1 5.5 7.5c0-.688.245-1.276.734-1.766A2.407 2.407 0 0 1 8 5c.688 0 1.276.245 1.766.734.49.49.734 1.079.734 1.766 0 .688-.245 1.276-.734 1.766C9.276 9.756 8.687 10 8 10Zm7.5 0a2.407 2.407 0 0 1-1.766-.734A2.407 2.407 0 0 1 13 7.5c0-.688.245-1.276.734-1.766A2.407 2.407 0 0 1 15.5 5c.688 0 1.276.245 1.766.734.49.49.734 1.079.734 1.766 0 .688-.245 1.276-.734 1.766-.49.49-1.078.734-1.766.734Zm7.5 0a2.407 2.407 0 0 1-1.766-.734A2.407 2.407 0 0 1 20.5 7.5c0-.688.245-1.276.734-1.766A2.407 2.407 0 0 1 23 5c.688 0 1.276.245 1.766.734.49.49.734 1.079.734 1.766 0 .688-.245 1.276-.734 1.766-.49.49-1.078.734-1.766.734Z" fill="#7630EB"/></svg>