<svg width="30" height="30" fill="none" xmlns="http://www.w3.org/2000/svg"><path d="M15 26.25c-3.146 0-5.807-.484-7.984-1.453-2.177-.969-3.266-2.151-3.266-3.547V8.75c0-1.375 1.099-2.552 3.297-3.531C9.245 4.239 11.896 3.75 15 3.75s5.755.49 7.953 1.469c2.198.979 3.297 2.156 3.297 3.531v12.5c0 1.396-1.088 2.578-3.266 3.547-2.177.969-4.838 1.453-7.984 1.453Zm0-14.969c1.854 0 3.719-.265 5.594-.797 1.875-.53 2.927-1.099 3.156-1.703-.23-.604-1.276-1.177-3.14-1.719a19.837 19.837 0 0 0-11.188-.016c-1.823.532-2.88 1.11-3.172 1.735.292.625 1.349 1.198 3.172 1.719 1.823.52 3.682.781 5.578.781Zm0 6.219c.875 0 1.719-.042 2.531-.125a22.22 22.22 0 0 0 2.328-.36 17 17 0 0 0 2.094-.578c.656-.229 1.255-.49 1.797-.78v-3.75c-.542.29-1.14.551-1.797.78a17 17 0 0 1-2.094.579 22.22 22.22 0 0 1-2.328.359A24.82 24.82 0 0 1 15 13.75c-.875 0-1.73-.042-2.563-.125a22.008 22.008 0 0 1-2.359-.36A16.256 16.256 0 0 1 8 12.688a11.34 11.34 0 0 1-1.75-.78v3.75c.52.29 1.104.551 1.75.78.646.23 1.339.422 2.078.579.74.156 1.526.276 2.36.359.833.083 1.687.125 2.562.125Zm0 6.25c.958 0 1.932-.073 2.922-.219.99-.146 1.9-.338 2.734-.578.834-.24 1.532-.51 2.094-.812.563-.302.896-.61 1-.922v-3.063c-.542.292-1.14.552-1.797.782a17 17 0 0 1-2.094.578 22.22 22.22 0 0 1-2.328.359A24.82 24.82 0 0 1 15 20c-.875 0-1.73-.042-2.563-.125a22.008 22.008 0 0 1-2.359-.36A16.256 16.256 0 0 1 8 18.938a11.34 11.34 0 0 1-1.75-.78v3.093c.104.313.432.615.984.906.552.292 1.245.558 2.079.797.833.24 1.75.432 2.75.578 1 .146 1.979.219 2.937.219Z" fill="#7630EB"/></svg>