<svg width="40" height="41" fill="none" xmlns="http://www.w3.org/2000/svg"><g clip-path="url('#clip0_7004_1315')"><path d="M39.25 20.5c0-10.51-8.52-19.03-19.03-19.03C9.71 1.47 1.19 9.99 1.19 20.5c0 10.51 8.52 19.03 19.03 19.03 10.51 0 19.03-8.52 19.03-19.03Z" stroke="#fff" stroke-width="1.5" stroke-miterlimit="10"/><path d="M17.32 32h4.63V20.4h3.23l.34-3.88h-3.58v-2.21c0-.92.18-1.28 1.07-1.28h2.51V9h-3.21c-3.45 0-5 1.52-5 4.42v3.1H14.9v3.93h2.41V32h.01Z" fill="#fff"/></g><defs><clipPath id="clip0_7004_1315"><path fill="#fff" transform="translate(.44 .72)" d="M0 0h39.56v39.56H0z"/></clipPath></defs></svg>