<svg width="30" height="30" fill="none" xmlns="http://www.w3.org/2000/svg"><g clip-path="url('#clip0_7004_2609')"><path d="M0 22.5v-1.969c0-.896.458-1.625 1.375-2.187C2.292 17.78 3.5 17.5 5 17.5c.27 0 .531.005.781.016.25.01.49.036.719.078-.292.437-.51.896-.656 1.375-.146.479-.219.979-.219 1.5V22.5H0Zm7.5 0v-2.031c0-.667.182-1.276.547-1.828.364-.552.88-1.037 1.547-1.453.666-.417 1.463-.73 2.39-.938A13.748 13.748 0 0 1 15 15.937c1.104 0 2.12.105 3.047.313.927.208 1.724.52 2.39.938.667.416 1.178.9 1.532 1.453.354.552.531 1.161.531 1.828V22.5h-15Zm16.875 0v-2.031c0-.542-.068-1.052-.203-1.532a4.893 4.893 0 0 0-.61-1.343c.23-.042.464-.068.704-.078.24-.01.484-.016.734-.016 1.5 0 2.708.276 3.625.828.917.552 1.375 1.287 1.375 2.203V22.5h-5.625ZM10.156 20h9.719c-.208-.417-.787-.781-1.734-1.094-.948-.312-1.995-.468-3.141-.468s-2.193.156-3.14.468c-.948.313-1.516.677-1.704 1.094ZM5 16.25a2.407 2.407 0 0 1-1.766-.734A2.407 2.407 0 0 1 2.5 13.75c0-.708.245-1.302.734-1.781A2.434 2.434 0 0 1 5 11.25c.708 0 1.302.24 1.781.719.48.479.719 1.073.719 1.781 0 .688-.24 1.276-.719 1.766S5.708 16.25 5 16.25Zm20 0a2.407 2.407 0 0 1-1.766-.734 2.407 2.407 0 0 1-.734-1.766c0-.708.245-1.302.734-1.781A2.434 2.434 0 0 1 25 11.25c.708 0 1.302.24 1.781.719.48.479.719 1.073.719 1.781 0 .688-.24 1.276-.719 1.766s-1.073.734-1.781.734ZM15 15c-1.042 0-1.927-.365-2.656-1.094-.73-.729-1.094-1.614-1.094-2.656 0-1.063.365-1.953 1.094-2.672C13.073 7.86 13.958 7.5 15 7.5c1.063 0 1.953.36 2.672 1.078.719.719 1.078 1.61 1.078 2.672 0 1.042-.36 1.927-1.078 2.656C16.953 14.636 16.062 15 15 15Zm0-2.5c.354 0 .651-.12.89-.36.24-.239.36-.536.36-.89s-.12-.651-.36-.89A1.21 1.21 0 0 0 15 10c-.354 0-.651.12-.89.36-.24.239-.36.536-.36.89s.12.651.36.89c.239.24.536.36.89.36Z" fill="#7630EB"/></g><defs><clipPath id="clip0_7004_2609"><path fill="#fff" d="M0 0h30v30H0z"/></clipPath></defs></svg>