<svg width="41" height="41" fill="none" xmlns="http://www.w3.org/2000/svg"><g clip-path="url('#clip0_7004_1314')"><path d="M20.66 39.53c-10.51 0-19.03-8.52-19.03-19.03 0-10.51 8.52-19.03 19.03-19.03 10.51 0 19.03 8.52 19.03 19.03 0 10.51-8.52 19.03-19.03 19.03Z" stroke="#fff" stroke-width="1.5" stroke-miterlimit="10"/><path d="M20.66 11.95c2.79 0 3.12.01 4.22.06 1.02.05 1.57.22 1.94.36.49.19.83.42 1.2.78.37.37.59.71.78 1.2.14.37.31.92.36 1.94.05 1.1.06 1.43.06 4.22s-.01 3.12-.06 4.22c-.05 1.02-.22 1.57-.36 1.94-.19.49-.42.83-.78 1.2-.36.36-.71.59-1.2.78-.37.14-.92.31-1.94.36-1.1.05-1.43.06-4.22.06s-3.12-.01-4.22-.06c-1.02-.05-1.57-.22-1.94-.36-.49-.19-.83-.42-1.2-.78-.37-.37-.59-.71-.78-1.2-.14-.37-.31-.92-.36-1.94-.05-1.1-.06-1.43-.06-4.22s.01-3.12.06-4.22c.05-1.02.22-1.57.36-1.94.19-.49.42-.83.78-1.2.37-.37.71-.59 1.2-.78.37-.14.92-.31 1.94-.36 1.1-.05 1.43-.06 4.22-.06Zm0-1.88c-2.83 0-3.19.01-4.3.06-1.11.05-1.87.23-2.53.49-.69.27-1.27.62-1.85 1.2-.58.58-.94 1.16-1.2 1.85-.26.66-.43 1.42-.48 2.53-.05 1.11-.06 1.47-.06 4.3s.01 3.19.06 4.3c.05 1.11.23 1.87.48 2.53.27.69.62 1.27 1.2 1.85.58.58 1.16.94 1.85 1.2.66.26 1.42.43 2.53.49 1.11.05 1.47.06 4.3.06s3.19-.01 4.3-.06c1.11-.05 1.87-.23 2.53-.49.69-.27 1.27-.62 1.85-1.2.58-.58.94-1.16 1.2-1.85.26-.66.43-1.42.49-2.53.05-1.11.06-1.47.06-4.3s-.01-3.19-.06-4.3c-.05-1.11-.23-1.87-.49-2.53-.27-.69-.62-1.27-1.2-1.85-.58-.58-1.16-.94-1.85-1.2-.66-.26-1.42-.43-2.53-.49-1.11-.05-1.47-.06-4.3-.06Z" fill="#fff"/><path d="M20.66 15.14a5.36 5.36 0 1 0 0 10.72 5.36 5.36 0 0 0 0-10.72Zm0 8.84c-1.92 0-3.48-1.56-3.48-3.48s1.56-3.48 3.48-3.48 3.48 1.56 3.48 3.48-1.56 3.48-3.48 3.48ZM27.48 14.93a1.25 1.25 0 1 1-2.5 0 1.25 1.25 0 0 1 2.5 0Z" fill="#fff"/></g><defs><clipPath id="clip0_7004_1314"><path fill="#fff" transform="translate(.88 .72)" d="M0 0h39.56v39.56H0z"/></clipPath></defs></svg>