<svg width="40" height="41" fill="none" xmlns="http://www.w3.org/2000/svg"><g clip-path="url('#clip0_7004_1318')"><path d="M38.81 20.5c0-10.51-8.52-19.03-19.03-19.03C9.27 1.47.75 9.99.75 20.5c0 10.51 8.52 19.03 19.03 19.03 10.51 0 19.03-8.52 19.03-19.03Z" stroke="#fff" stroke-width="1.5" stroke-miterlimit="10"/><path d="M15.09 16.26h-3.94v12.72h3.94V16.26ZM13.1 14.59c1.29 0 2.33-1.05 2.33-2.35s-1.04-2.35-2.33-2.35-2.33 1.05-2.33 2.35 1.04 2.35 2.33 2.35ZM21.39 22.3c0-1.79.82-2.85 2.4-2.85 1.45 0 2.14 1.02 2.14 2.85v6.68h3.92v-8.06c0-3.41-1.93-5.06-4.63-5.06s-3.83 2.1-3.83 2.1v-1.71h-3.78v12.72h3.78v-6.68.01Z" fill="#fff"/></g><defs><clipPath id="clip0_7004_1318"><path fill="#fff" transform="translate(0 .72)" d="M0 0h39.56v39.56H0z"/></clipPath></defs></svg>