<svg width="30" height="30" fill="none" xmlns="http://www.w3.org/2000/svg"><path d="M15 15c.688 0 1.276-.245 1.766-.734.49-.49.734-1.079.734-1.766 0-.688-.245-1.276-.734-1.766A2.407 2.407 0 0 0 15 10c-.688 0-1.276.245-1.766.734A2.407 2.407 0 0 0 12.5 12.5c0 .688.245 1.276.734 1.766.49.49 1.079.734 1.766.734Zm0 9.188c2.542-2.334 4.427-4.454 5.656-6.36 1.23-1.906 1.844-3.599 1.844-5.078 0-2.27-.724-4.13-2.172-5.578C18.88 5.724 17.104 5 15 5s-3.88.724-5.328 2.172C8.224 8.62 7.5 10.479 7.5 12.75c0 1.48.615 3.172 1.844 5.078 1.229 1.906 3.114 4.026 5.656 6.36Zm0 3.312c-3.354-2.854-5.86-5.505-7.516-7.953C5.828 17.099 5 14.833 5 12.75c0-3.125 1.005-5.615 3.016-7.469C10.026 3.427 12.354 2.5 15 2.5s4.974.927 6.984 2.781S25 9.625 25 12.75c0 2.083-.828 4.349-2.484 6.797-1.657 2.448-4.162 5.099-7.516 7.953Z" fill="#7630EB"/></svg>