<svg width="312" height="74" fill="none" xmlns="http://www.w3.org/2000/svg"><g clip-path="url('#clip0_7001_978')"><mask id="mask0_7001_978" style="mask-type:luminance" maskUnits="userSpaceOnUse" x="0" y="0" width="312" height="74"><path d="M312 .868H0v72.264h312V.868Z" fill="#fff"/></mask><g mask="url('#mask0_7001_978')" fill="#fff"><path d="M0 21.805v23.299l.779-.507 4.934 1.9L0 49.536v23.552l31.68-17.094.39.126V32.188l-.52.254-5.063-1.646 5.583-3.04V4.207L0 21.551v.253Zm1.298 49.13v-20.64l5.973-3.292 22.722 8.357L1.298 70.935ZM30.772 54.22 8.829 46.244 30.772 34.34v19.88Zm-.78-20.893L7.143 45.61l-4.805-1.772L24.93 31.555l5.064 1.773Zm.78-26.97v20.64l-5.843 3.165-23.37-7.978L30.771 6.358ZM1.298 23.578l22.073 7.47L1.298 42.953V23.578ZM41.418 27.63c0-5.445 5.064-7.85 11.426-7.85 4.025 0 7.4 1.013 9.998 2.659l.779-1.267c-2.986-1.646-6.492-2.785-10.907-2.785-7.01 0-12.983 3.039-12.983 9.496 0 13.422 25.059 8.104 24.539 20.26-.26 5.825-5.713 8.357-12.205 8.357-5.323 0-10.127-1.9-13.633-5.191l-.779 1.14c3.636 3.544 8.959 5.57 14.542 5.57 7.141 0 13.763-3.165 13.763-10.256 0-13.928-24.54-8.23-24.54-20.133ZM84.265 18.26c-5.713 0-10.647 2.28-15.191 5.825l.909 1.266c4.414-3.419 8.828-5.571 14.282-5.571 8.57 0 12.854 4.431 12.984 11.649v4.938H82.058c-9.349 0-15.191 3.799-15.191 10.257 0 6.584 5.323 11.522 13.243 11.522 7.4 0 13.503-2.786 17.139-8.99l.13 8.99h1.558l-.13-26.59c-.13-8.104-5.194-13.296-14.542-13.296ZM80.24 56.5c-7.141 0-11.815-4.052-11.815-9.877 0-5.57 4.934-8.736 13.633-8.736h15.191l.13 7.724C94.002 53.46 88.03 56.5 80.24 56.5ZM108.285.913h1.558v57.106h-1.558V.913ZM135.551 56.5c-10.517 0-18.047-7.597-18.047-18.36h37.003c0-11.523-7.53-19.88-18.956-19.88-11.296 0-19.605 8.357-19.605 19.88 0 11.649 8.309 19.88 19.605 19.88 6.362 0 11.815-2.28 15.581-6.205l-1.169-1.14c-3.376 3.799-8.569 5.825-14.412 5.825Zm0-36.72c10.127 0 16.619 6.837 17.398 16.84h-35.445c.649-10.003 8.049-16.84 18.047-16.84ZM157.364 27.63c0-5.445 5.064-7.85 11.426-7.85 4.025 0 7.4 1.013 9.997 2.659l.779-1.267c-2.986-1.646-6.492-2.785-10.906-2.785-7.012 0-12.984 3.039-12.984 9.496 0 13.422 25.059 8.104 24.539 20.26-.26 5.825-5.713 8.357-12.205 8.357-5.323 0-10.127-1.9-13.633-5.191l-1.038 1.14c3.635 3.544 8.959 5.57 14.541 5.57 7.142 0 13.764-3.165 13.764-10.256.259-13.928-24.28-8.23-24.28-20.133ZM271.451 37.081c0-12.788-9.348-21.272-23.371-21.272-9.997 0-17.657 4.305-21.163 11.523-2.986-7.091-9.478-11.523-17.917-11.523-5.324 0-9.609 2.026-12.595 5.825V.868h-14.023v57.106h14.023V52.53c2.986 3.8 7.401 5.825 12.854 5.825 8.44 0 14.802-4.305 17.788-11.27 3.506 7.091 11.036 11.27 21.033 11.27 14.023.126 23.371-8.357 23.371-21.273Zm-65.828 10.257c-5.323 0-9.088-4.179-9.088-10.257 0-6.077 3.765-10.383 9.088-10.383 5.584 0 9.219 4.18 9.219 10.383 0 6.205-3.765 10.257-9.219 10.257Zm42.457.38c-5.452 0-9.218-4.179-9.218-10.383 0-6.205 3.766-10.257 9.218-10.257 5.584 0 9.219 4.179 9.219 10.257 0 6.204-3.635 10.383-9.219 10.383Z"/><path d="m297.589 36.747 13.503-20.386h-15.451l-7.401 11.776-6.881-11.776h-16.1l13.633 20.386-14.542 21.272h15.451l8.439-12.662 7.661 12.662h16.1l-14.412-21.272Z"/></g></g><defs><clipPath id="clip0_7001_978"><path fill="#fff" transform="translate(0 .868)" d="M0 0h312v72.265H0z"/></clipPath></defs></svg>