<svg width="25" height="25" fill="none" xmlns="http://www.w3.org/2000/svg"><g id="person_search_24dp_FILL0_wght400_GRAD0_opsz24 1" clip-path="url('#clip0_7004_2663')"><path id="Vector" d="M11.58 12.069c-1.1 0-2.041-.392-2.825-1.175-.783-.784-1.175-1.725-1.175-2.825s.392-2.042 1.175-2.825c.784-.783 1.725-1.175 2.825-1.175s2.042.392 2.825 1.175c.784.783 1.175 1.725 1.175 2.825s-.392 2.041-1.175 2.825c-.783.783-1.725 1.175-2.825 1.175Zm0-2c.55 0 1.021-.196 1.413-.588.391-.391.587-.862.587-1.412 0-.55-.196-1.021-.587-1.413a1.926 1.926 0 0 0-1.413-.587c-.55 0-1.02.196-1.412.587A1.926 1.926 0 0 0 9.58 8.07c0 .55.196 1.02.588 1.412.391.392.862.588 1.412.588Zm11.1 13.5-3.2-3.2c-.35.2-.725.366-1.125.5-.4.133-.825.2-1.275.2-1.25 0-2.312-.438-3.187-1.313S12.58 17.82 12.58 16.57c0-1.25.438-2.313 1.313-3.188s1.937-1.312 3.187-1.312c1.25 0 2.313.437 3.188 1.312s1.312 1.938 1.312 3.188c0 .45-.066.875-.2 1.275-.133.4-.3.775-.5 1.125l3.2 3.2-1.4 1.4Zm-5.6-4.5c.7 0 1.292-.242 1.775-.725.483-.484.725-1.075.725-1.775s-.241-1.292-.725-1.775c-.483-.484-1.075-.725-1.775-.725s-1.291.241-1.775.725c-.483.483-.725 1.075-.725 1.775s.242 1.291.725 1.775c.484.483 1.075.725 1.775.725Zm-13.5 1v-2.775c0-.567.142-1.092.425-1.575.284-.483.675-.85 1.175-1.1.85-.434 1.809-.8 2.875-1.1 1.067-.3 2.25-.45 3.55-.45-.2.3-.37.62-.512.962a6.567 6.567 0 0 0-.338 1.063c-1 .083-1.891.254-2.675.512-.783.259-1.441.53-1.975.813a.906.906 0 0 0-.387.362c-.092.159-.138.33-.138.513v.775h5.175c.083.367.196.716.338 1.05.141.333.312.65.512.95H3.58Z" fill="#7630EB"/></g><defs><clipPath id="clip0_7004_2663"><path fill="#fff" transform="translate(.58 .069)" d="M0 0h24v24H0z"/></clipPath></defs></svg>