<svg width="30" height="30" fill="none" xmlns="http://www.w3.org/2000/svg"><path d="M16.25 13.75h8.688c-.313-2.292-1.266-4.234-2.86-5.828-1.594-1.594-3.536-2.547-5.828-2.86v8.688Zm-2.5 11.188V5.063c-2.52.312-4.61 1.411-6.266 3.296C5.828 10.245 5 12.46 5 15c0 2.542.828 4.755 2.484 6.64 1.657 1.886 3.745 2.985 6.266 3.297Zm2.5 0c2.292-.292 4.24-1.24 5.844-2.844 1.604-1.604 2.552-3.552 2.843-5.844H16.25v8.688ZM15 27.5c-1.73 0-3.354-.328-4.875-.984a12.622 12.622 0 0 1-3.969-2.672 12.624 12.624 0 0 1-2.672-3.969C2.828 18.355 2.5 16.729 2.5 15c0-1.73.328-3.354.984-4.875a12.623 12.623 0 0 1 2.672-3.969 12.623 12.623 0 0 1 3.969-2.672C11.645 2.828 13.271 2.5 15 2.5c1.73 0 3.349.328 4.86.984a12.728 12.728 0 0 1 3.968 2.688 12.728 12.728 0 0 1 2.688 3.969c.656 1.51.984 3.13.984 4.859 0 1.708-.328 3.323-.984 4.844a12.812 12.812 0 0 1-2.672 3.984 12.492 12.492 0 0 1-3.969 2.688c-1.52.656-3.146.984-4.875.984Z" fill="#7630EB"/></svg>