<svg width="31" height="30" fill="none" xmlns="http://www.w3.org/2000/svg"><path d="M7.813 21.375a13.045 13.045 0 0 1 3.562-1.922 12.173 12.173 0 0 1 4.125-.703c1.438 0 2.813.234 4.125.703 1.313.469 2.5 1.11 3.563 1.922a9.66 9.66 0 0 0 1.703-2.906c.406-1.084.609-2.24.609-3.469 0-2.77-.974-5.13-2.922-7.078C20.63 5.974 18.271 5 15.5 5c-2.77 0-5.13.974-7.078 2.922C6.474 9.87 5.5 12.229 5.5 15c0 1.23.203 2.385.61 3.469a9.662 9.662 0 0 0 1.702 2.906ZM15.5 16.25c-1.23 0-2.266-.422-3.11-1.266-.843-.843-1.265-1.88-1.265-3.109 0-1.23.422-2.266 1.266-3.11.843-.843 1.88-1.265 3.109-1.265 1.23 0 2.266.422 3.11 1.266.843.843 1.265 1.88 1.265 3.109 0 1.23-.422 2.266-1.266 3.11-.843.843-1.88 1.265-3.109 1.265Zm0 11.25c-1.73 0-3.354-.328-4.875-.984a12.622 12.622 0 0 1-3.969-2.672 12.624 12.624 0 0 1-2.672-3.969C3.328 18.355 3 16.729 3 15c0-1.73.328-3.354.984-4.875a12.623 12.623 0 0 1 2.672-3.969 12.623 12.623 0 0 1 3.969-2.672c1.52-.656 3.146-.984 4.875-.984 1.73 0 3.354.328 4.875.984a12.624 12.624 0 0 1 3.969 2.672 12.622 12.622 0 0 1 2.672 3.969c.656 1.52.984 3.146.984 4.875 0 1.73-.328 3.354-.984 4.875a12.623 12.623 0 0 1-2.672 3.969 12.623 12.623 0 0 1-3.969 2.672c-1.52.656-3.146.984-4.875.984Zm0-2.5a9.916 9.916 0 0 0 3.125-.484 9.41 9.41 0 0 0 2.688-1.391 9.41 9.41 0 0 0-2.688-1.39 9.916 9.916 0 0 0-3.125-.485 9.916 9.916 0 0 0-3.125.484 9.41 9.41 0 0 0-2.688 1.391 9.41 9.41 0 0 0 2.688 1.39c.98.323 2.02.485 3.125.485Zm0-11.25c.542 0 .99-.177 1.344-.531.354-.354.531-.802.531-1.344s-.177-.99-.531-1.344C16.49 10.177 16.042 10 15.5 10s-.99.177-1.344.531c-.354.354-.531.802-.531 1.344s.177.99.531 1.344c.354.354.802.531 1.344.531Z" fill="#7630EB"/></svg>