<svg width="25" height="25" fill="none" xmlns="http://www.w3.org/2000/svg"><g id="speed_24dp_FILL0_wght400_GRAD0_opsz24 1"><path id="Vector" d="M11.03 15.569c.4.4.917.596 1.55.587.633-.008 1.1-.237 1.4-.687l5.6-8.4-8.4 5.6c-.45.3-.687.758-.712 1.375-.025.617.162 1.125.562 1.525Zm1.55-11.5c.983 0 1.93.137 2.838.412A9.213 9.213 0 0 1 17.98 5.72l-1.9 1.2a7.651 7.651 0 0 0-3.5-.85c-2.216 0-4.104.779-5.662 2.337C5.359 9.965 4.58 11.852 4.58 14.07c0 .7.096 1.391.288 2.075.191.683.462 1.325.812 1.925h13.8a7.297 7.297 0 0 0 .838-1.975 8.531 8.531 0 0 0 .262-2.125c0-.6-.07-1.183-.212-1.75a7.267 7.267 0 0 0-.638-1.65l1.2-1.9c.5.783.896 1.617 1.188 2.5.291.883.446 1.8.462 2.75a9.772 9.772 0 0 1-.325 2.725 10.349 10.349 0 0 1-1.025 2.475c-.183.3-.433.533-.75.7-.317.166-.65.25-1 .25H5.68c-.35 0-.683-.084-1-.25a1.896 1.896 0 0 1-.75-.7 9.923 9.923 0 0 1-1.35-5.05c0-1.384.263-2.68.788-3.888a10.183 10.183 0 0 1 2.15-3.175 10.143 10.143 0 0 1 3.187-2.15 9.676 9.676 0 0 1 3.875-.787Z" fill="#7630EB"/></g></svg>