<svg width="41" height="41" fill="none" xmlns="http://www.w3.org/2000/svg"><g clip-path="url('#clip0_7004_1325')"><path d="M20.34 39.53c-10.51 0-19.03-8.52-19.03-19.03 0-10.51 8.52-19.03 19.03-19.03 10.51 0 19.03 8.52 19.03 19.03 0 10.51-8.52 19.03-19.03 19.03Z" stroke="#fff" stroke-width="1.5" stroke-miterlimit="10"/><path d="M31.74 14.73a2.997 2.997 0 0 0-2.1-2.12c-1.86-.5-9.3-.5-9.3-.5s-7.44 0-9.3.5a2.997 2.997 0 0 0-2.1 2.12c-.5 1.87-.5 5.77-.5 5.77s0 3.9.5 5.77a2.997 2.997 0 0 0 2.1 2.12c1.86.5 9.3.5 9.3.5s7.44 0 9.3-.5a2.997 2.997 0 0 0 2.1-2.12c.5-1.87.5-5.77.5-5.77s0-3.9-.5-5.77ZM17.9 24.04v-7.08l6.22 3.54-6.22 3.54Z" fill="#fff"/></g><defs><clipPath id="clip0_7004_1325"><path fill="#fff" transform="translate(.56 .72)" d="M0 0h39.56v39.56H0z"/></clipPath></defs></svg>